# xmcd
#
# Track frame offsets:
#	150
#	12536
#	26572
#	40381
#	57764
#	74636
#	91054
#	103056
#	115690
#	126880
#	145354
#	156967
#	169301
#	182582
#	193360
#	209641
#	227960
#	244896
#	258791
#	271067
#	282806
#	295828
#	309820
#
# Disc length: 4311 seconds
#
# Revision: 1
# Processed by: cddbd v1.5.2PL0 Copyright (c) Steve Scherf et al.
# Submitted via: audiograbber 1.83.01
#
DISCID=5810d517
DTITLE=The Greatest Country Music Recordings Of All Time - Record 19 and 20
DYEAR=1900
DGENRE=
TTITLE0=Barbara Mandrell - The Midnight Oil
TTITLE1=Barbara Mandrell - Standing Room Only
TTITLE2=Barbara Mandrell - (If Loving You Is Wrong) I Don't Want To Be Right
TTITLE3=Barbara Mandrell - Years
TTITLE4=Barbara Mandrell - The Best Of Strangers
TTITLE5=Barbara Mandrell - I Was Country When Country Wasn't Cool
TTITLE6=Larry Gatlin - Broken Lady
TTITLE7=Larry Gatlin - I Don't Wanna Cry
TTITLE8=Larry Gatlin - Night Time Magic
TTITLE9=Larry Gatlin - I've Done Enough Duing Today
TTITLE10=Larry Gatlin - What Are We Doing Lonesome
TTITLE11=Ronnie Milsap - Please Don't Tell Me How The Story Ends
TTITLE12=Ronnie Milsap - (I'd) Be A Legend In My Time
TTITLE13=Ronnie Milsap - Daydreams About Night Things
TTITLE14=Ronnie Milsap - It Was Almost Like A Song
TTITLE15=Ronnie Milsap - Nobody Likes Sad Songs
TTITLE16=Ronnie Milsap - Smoky Mountain Rain
TTITLE17=Barbara Fairchild - Teddy Bear Song
TTITLE18=Charlie Rich - The Most Beautiful Girl
TTITLE19=Freddy Fender - Before The Next Teardrop Falls
TTITLE20=Terri Gibbs - Somebody's Knockin'
TTITLE21=Mickey Gilley - You Don't Know Me
TTITLE22=Dottie West - What Are We Doing In Love
EXTD=
EXTT0=
EXTT1=
EXTT2=
EXTT3=
EXTT4=
EXTT5=
EXTT6=
EXTT7=
EXTT8=
EXTT9=
EXTT10=
EXTT11=
EXTT12=
EXTT13=
EXTT14=
EXTT15=
EXTT16=
EXTT17=
EXTT18=
EXTT19=
EXTT20=
EXTT21=
EXTT22=
PLAYORDER=
